<svg width="31" height="33" viewBox="0 0 31 33" fill="none" xmlns="http://www.w3.org/2000/svg">
<path d="M29.8314 4.61849C29.7722 4.19301 29.4661 3.84303 29.0522 3.72799L15.789 0.0394706C15.5999 -0.0131569 15.4002 -0.0131569 15.2109 0.0394706L1.94766 3.72799C1.53383 3.84303 1.2277 4.19287 1.16846 4.61849C1.09153 5.17165 -0.663435 18.2417 3.83794 24.7436C8.33399 31.2378 14.9666 32.902 15.2467 32.9697C15.33 32.9899 15.4148 32.9998 15.5 32.9998C15.5851 32.9998 15.6699 32.9897 15.7532 32.9697C16.0334 32.902 22.6661 31.2378 27.162 24.7436C31.6633 18.2418 29.9084 5.1718 29.8314 4.61849ZM24.0531 12.2489L15.0062 21.2958C14.7957 21.5063 14.5196 21.6117 14.2436 21.6117C13.9677 21.6117 13.6916 21.5064 13.4811 21.2958L7.88752 15.7022C7.6852 15.5 7.57161 15.2257 7.57161 14.9397C7.57161 14.6537 7.68535 14.3793 7.88752 14.1771L8.99816 13.0665C9.41932 12.6455 10.1022 12.6453 10.5232 13.0665L14.2436 16.7869L21.4174 9.61307C21.6195 9.41075 21.8939 9.29716 22.1799 9.29716C22.4659 9.29716 22.7402 9.41075 22.9424 9.61307L24.0531 10.7237C24.4742 11.1449 24.4742 11.8277 24.0531 12.2489Z" fill="white"/>
</svg>
