<svg width="33" height="33" viewBox="0 0 33 33" fill="none" xmlns="http://www.w3.org/2000/svg">
<path d="M16.4999 15.1138C15.7355 15.1138 15.1135 15.7357 15.1135 16.5002C15.1135 17.2646 15.7354 17.8865 16.4999 17.8865C17.2644 17.8865 17.8863 17.2646 17.8863 16.5002C17.8863 15.7356 17.2644 15.1138 16.4999 15.1138Z" fill="white"/>
<path d="M16.5 11.0513C13.4955 11.0513 11.0513 13.4955 11.0513 16.5C11.0513 19.5045 13.4955 21.9487 16.5 21.9487C19.5045 21.9487 21.9487 19.5045 21.9487 16.5C21.9487 13.4955 19.5044 11.0513 16.5 11.0513ZM16.5 19.8208C14.6689 19.8208 13.1792 18.3311 13.1792 16.5C13.1792 14.6689 14.6689 13.1792 16.5 13.1792C18.3311 13.1792 19.8208 14.6689 19.8208 16.5C19.8208 18.3311 18.3311 19.8208 16.5 19.8208Z" fill="white"/>
<path d="M32.5473 15.9108C32.4746 15.8161 30.7342 13.5666 27.9114 11.2938C26.2433 9.95072 24.5403 8.87815 22.8496 8.10614C20.7009 7.12477 18.5646 6.6272 16.5 6.6272C14.4355 6.6272 12.2992 7.12477 10.1504 8.10614C8.45978 8.87822 6.75674 9.95072 5.08863 11.2938C2.26584 13.5666 0.525356 15.8161 0.452653 15.9108L0 16.5001L0.452589 17.0893C0.525292 17.184 2.26578 19.4335 5.08856 21.7064C6.75674 23.0494 8.45971 24.122 10.1504 24.894C12.2991 25.8754 14.4354 26.373 16.5 26.373C18.5645 26.373 20.7008 25.8754 22.8496 24.894C24.5402 24.1219 26.2433 23.0494 27.9114 21.7064C30.7342 19.4336 32.4746 17.184 32.5473 17.0893L32.9999 16.5001L32.5473 15.9108ZM16.5 23.8833C12.4289 23.8833 9.11681 20.5712 9.11681 16.5001C9.11681 12.429 12.4289 9.11689 16.5 9.11689C20.5711 9.11689 23.8831 12.4289 23.8831 16.5C23.8831 20.5712 20.5711 23.8833 16.5 23.8833Z" fill="white"/>
</svg>
