<svg width="33" height="33" viewBox="0 0 33 33" fill="none" xmlns="http://www.w3.org/2000/svg">
<path d="M32.9999 22.3329C32.9999 18.2379 30.6506 14.5832 27.1321 12.8054C27.0229 20.6571 20.6571 27.0229 12.8054 27.1321C14.5832 30.6506 18.2379 32.9999 22.3329 32.9999C24.2529 32.9999 26.12 32.4885 27.7606 31.517L32.9533 32.9533L31.517 27.7606C32.4885 26.12 32.9999 24.2529 32.9999 22.3329Z" fill="white"/>
<path d="M25.2012 12.6006C25.2012 5.65249 19.5487 0 12.6006 0C5.65249 0 0 5.65249 0 12.6006C0 14.865 0.602737 17.0698 1.74728 19.0054L0.0463257 25.1546L6.19581 23.4539C8.13142 24.5984 10.3362 25.2012 12.6006 25.2012C19.5487 25.2012 25.2012 19.5487 25.2012 12.6006ZM10.667 9.66797H8.7334C8.7334 7.53548 10.4681 5.80078 12.6006 5.80078C14.7331 5.80078 16.4678 7.53548 16.4678 9.66797C16.4678 10.7503 16.0096 11.7906 15.2102 12.5218L13.5674 14.0254V15.5332H11.6338V13.1739L13.9048 11.0953C14.3106 10.7239 14.5342 10.2171 14.5342 9.66797C14.5342 8.60172 13.6668 7.73438 12.6006 7.73438C11.5343 7.73438 10.667 8.60172 10.667 9.66797ZM11.6338 17.4668H13.5674V19.4004H11.6338V17.4668Z" fill="white"/>
</svg>
