<svg width="33" height="33" viewBox="0 0 33 33" fill="none" xmlns="http://www.w3.org/2000/svg">
<g clip-path="url(#clip0_748_405)">
<path d="M7.96533 18.1903C7.96533 18.1904 7.9654 18.1906 7.9654 18.1906C7.98583 18.17 7.98447 18.1712 7.96533 18.1903Z" fill="white"/>
<path d="M32.2685 13.6291L30.6275 13.2346C30.2707 11.6769 29.6561 10.1967 28.7971 8.82036L29.6287 7.42418C29.8554 7.04378 29.7939 6.55851 29.4815 6.24604L26.7561 3.52064C26.4436 3.20914 25.9594 3.14681 25.5779 3.37337L24.1817 4.20501C22.8054 3.34597 21.3252 2.73141 19.7675 2.3746L19.373 0.733625C19.2653 0.304109 18.8792 0.00195312 18.4356 0.00195312H14.5689C14.1252 0.00195312 13.7391 0.304045 13.6315 0.733625L13.2369 2.3746C11.6793 2.73141 10.199 3.34597 8.82269 4.20501L7.42651 3.37337C7.04611 3.14675 6.56084 3.20817 6.24837 3.52064L3.52284 6.24598C3.21037 6.55845 3.14901 7.04365 3.37556 7.42412L4.2072 8.8203C3.34817 10.1966 2.73361 11.6769 2.3768 13.2345L0.735822 13.6291C0.306307 13.7367 0.00415039 14.1228 0.00415039 14.5665V18.4332C0.00415039 18.8769 0.306242 19.2639 0.736725 19.3706L2.3777 19.7652C2.6156 20.7973 2.97363 21.7889 3.43344 22.74C4.14339 22.0271 7.70907 18.4462 7.96534 18.1902C7.9527 18.1251 7.81458 16.8869 7.81091 16.6457C7.72866 11.7198 11.6963 7.80065 16.5059 7.80065C21.3484 7.80065 25.2098 11.7054 25.1916 16.53C25.1708 20.9919 21.8406 24.7904 17.1894 25.1378C16.9882 25.1532 16.0785 25.2874 14.8105 25.0375L10.2736 29.5744C11.2211 30.0314 12.2089 30.3872 13.2368 30.6241L13.6314 32.2661C13.739 32.6956 14.1251 32.9978 14.5688 32.9978H18.4355C18.8792 32.9978 19.2653 32.6957 19.3729 32.2661L19.7675 30.6251C21.3251 30.2683 22.8053 29.6537 24.1817 28.7947L25.5779 29.6263C25.9564 29.853 26.4426 29.7906 26.756 29.4791L29.4814 26.7537C29.7939 26.4412 29.8552 25.956 29.6287 25.5755L28.797 24.1794C29.657 22.803 30.2706 21.3228 30.6274 19.7642L32.2675 19.3706C32.6979 19.2639 33 18.8769 33 18.4332V14.5665C33 14.1229 32.698 13.7367 32.2685 13.6291Z" fill="white"/>
<path d="M23.0432 14.7326C22.9583 14.3998 22.7013 14.138 22.37 14.0472C22.0388 13.9563 21.6848 14.051 21.4419 14.2939L19.236 16.4999C18.482 17.254 17.2562 17.254 16.5021 16.4999C15.7488 15.7466 15.7488 14.5194 16.5021 13.766L18.709 11.5591C18.9518 11.3163 19.0456 10.9618 18.9548 10.6307C18.8639 10.2996 18.6024 10.0422 18.2697 9.95768C14.1907 8.92108 10.52 11.578 9.84674 15.2472C9.63057 16.4555 9.72686 17.6591 10.1223 18.7674C9.5723 19.3175 1.07648 27.8132 0.84812 28.0417C-0.285675 29.1755 -0.285675 31.0201 0.866038 32.1718C2.00699 33.2533 3.75438 33.2988 4.96023 32.1539L14.2345 22.8796C15.7197 23.4096 17.3761 23.3989 18.997 22.8269C21.9177 21.7963 23.9618 18.3376 23.0432 14.7326Z" fill="white"/>
</g>
<defs>
<clipPath id="clip0_748_405">
<rect width="33" height="33" fill="white"/>
</clipPath>
</defs>
</svg>
