<svg width="33" height="33" viewBox="0 0 33 33" fill="none" xmlns="http://www.w3.org/2000/svg">
<path d="M28.1673 4.83276C25.0509 1.71632 20.9073 0 16.5 0C12.0927 0 7.94913 1.71632 4.8327 4.83276C1.71626 7.9492 0 12.0927 0 16.5C0 20.9073 1.71626 25.0509 4.8327 28.1672C7.94913 31.2836 12.0927 33 16.5 33C20.9073 33 25.0509 31.2837 28.1673 28.1672C31.2837 25.0508 33 20.9073 33 16.5C33 12.0927 31.2837 7.94913 28.1673 4.83276ZM16.5 29.7614C9.1876 29.7614 3.23864 23.8123 3.23864 16.5C3.23864 16.488 3.23903 16.4762 3.23909 16.4643C3.23909 16.4613 3.23864 16.4584 3.23864 16.4553C3.23864 16.4502 3.23928 16.4453 3.23941 16.4403C3.27158 9.21557 9.11019 3.33764 16.3198 3.24096C16.3349 3.24025 16.3498 3.23871 16.3651 3.23871C16.3743 3.23871 16.3831 3.2398 16.3922 3.24006C16.4282 3.2398 16.464 3.23871 16.5001 3.23871C23.8125 3.23871 29.7614 9.18773 29.7614 16.5001C29.7614 23.8124 23.8124 29.7614 16.5 29.7614Z" fill="white"/>
<path d="M26.5731 17.2967C26.0339 17.2967 25.5967 16.8596 25.5967 16.3204C25.5967 15.7812 26.0339 15.3441 26.5731 15.3441H27.7499C27.1972 9.92509 22.8024 5.62626 17.3413 5.22266V6.24714C17.3413 6.78635 16.9041 7.22347 16.3649 7.22347C15.8257 7.22347 15.3886 6.78635 15.3886 6.24714V5.24599C10.0083 5.77321 5.72261 10.0865 5.23773 15.479H6.29167C6.83088 15.479 7.268 15.9161 7.268 16.4553C7.268 16.9945 6.83088 17.4316 6.29167 17.4316H5.22974C5.67865 22.9109 10.0503 27.2959 15.5235 27.7662V26.5285C15.5235 25.9893 15.9607 25.5521 16.4999 25.5521C17.0391 25.5521 17.4762 25.9893 17.4762 26.5285V27.7662C22.9943 27.292 27.3925 22.8387 27.7801 17.2967H26.5731ZM20.4521 13.9285L17.1903 17.1904C17.0072 17.3736 16.7589 17.4764 16.4999 17.4764C16.241 17.4764 15.9926 17.3736 15.8096 17.1904L10.1317 11.5126C9.75041 11.1313 9.75041 10.5132 10.1317 10.1319C10.513 9.75055 11.1311 9.75055 11.5124 10.1319L16.5 15.1194L19.0716 12.5478C19.4528 12.1665 20.071 12.1665 20.4523 12.5478C20.8335 12.9291 20.8335 13.5473 20.4521 13.9285Z" fill="white"/>
</svg>
