<svg width="33" height="33" viewBox="0 0 33 33" fill="none" xmlns="http://www.w3.org/2000/svg">
<path d="M17.4668 1.97658V0H15.5332V1.97658C6.65208 2.41996 0 8.95679 0 17.4668L0.000966797 19.0246L1.39831 18.3326C1.41526 18.3231 3.22543 17.4668 4.89844 17.4668C6.14567 17.4668 7.62036 18.6592 8.083 19.1181L8.76653 19.7941L9.44818 19.1181C9.91089 18.6592 11.3856 17.4668 12.6328 17.4668C13.6899 17.4668 14.9039 18.32 15.5332 18.8606V30.0996C15.5332 31.6989 16.8343 33 18.4336 33C20.0329 33 21.334 31.6989 21.334 30.0996V28.166H19.4004V30.0996C19.4004 30.633 18.967 31.0664 18.4336 31.0664C17.9002 31.0664 17.4668 30.633 17.4668 30.0996V18.8606C18.0961 18.32 19.3101 17.4668 20.3672 17.4668C21.6144 17.4668 23.0891 18.6592 23.5518 19.1181L24.2353 19.7941L24.9169 19.1181C25.3796 18.6592 26.9188 17.4668 28.166 17.4668C29.839 17.4668 31.5847 18.3231 31.6018 18.3326L33 19.0256V17.4668C33 8.95679 26.3479 2.41996 17.4668 1.97658Z" fill="white"/>
</svg>
