<svg width="16" height="20" viewBox="0 0 16 20" fill="none" xmlns="http://www.w3.org/2000/svg">
<path d="M8.75 5C8.75 4.58578 8.41422 4.25 8 4.25C7.58578 4.25 7.25 4.58578 7.25 5V8C7.25 8.41422 7.58578 8.75 8 8.75C8.41422 8.75 8.75 8.41422 8.75 8V5Z" fill="#7FBF4B"/>
<path fill-rule="evenodd" clip-rule="evenodd" d="M0 8C0 3.58172 3.58172 0 8 0C12.4183 0 16 3.58172 16 8V12C16 16.4183 12.4183 20 8 20C3.58172 20 0 16.4183 0 12V8ZM14.5 8V12C14.5 15.5899 11.5899 18.5 8 18.5C4.41016 18.5 1.5 15.5899 1.5 12V8C1.5 4.41016 4.41016 1.5 8 1.5C11.5899 1.5 14.5 4.41016 14.5 8Z" fill="#7FBF4B"/>
</svg>
