<svg width="17" height="17" viewBox="0 0 17 17" fill="none" xmlns="http://www.w3.org/2000/svg">
<path d="M12.2343 17C9.25408 17 6.07159 15.9049 3.58328 13.4167C1.09912 10.9325 0 7.75213 0 4.76574C0 2.13377 2.12938 0 4.76574 0C4.96941 0 5.15253 0.12398 5.22816 0.313072L7.36203 5.64772C7.4642 5.90312 7.33998 6.19295 7.08462 6.29511L4.74058 7.2327C4.90639 9.92939 7.07104 12.0939 9.7673 12.2595L10.7049 9.91545C10.8069 9.66048 11.0966 9.5358 11.3523 9.638L16.6869 11.7718C16.876 11.8475 17 12.0306 17 12.2343C17 14.8662 14.8706 17 12.2343 17Z" fill="white"/>
</svg>
