<svg width="18" height="18" viewBox="0 0 18 18" fill="none" xmlns="http://www.w3.org/2000/svg">
<path d="M9 0C4.03738 0 0 4.03738 0 9C0 13.9626 4.03738 18 9 18C13.9626 18 18 13.9626 18 9C18 4.03738 13.9626 0 9 0ZM9 17.1562C4.50264 17.1562 0.84375 13.4974 0.84375 9C0.84375 4.50264 4.50264 0.84375 9 0.84375C13.4974 0.84375 17.1562 4.50264 17.1562 9C17.1562 13.4974 13.4974 17.1562 9 17.1562ZM13.7069 10.6371C13.7069 10.6371 13.7069 10.6371 13.7069 10.6371L12.0536 9.68249C11.8004 9.53634 11.505 9.4976 11.2218 9.57347C10.9386 9.64934 10.7021 9.83057 10.556 10.0838C10.4712 10.2307 10.3226 10.4155 10.0967 10.4617C9.89061 10.5038 9.70868 10.463 9.54049 10.3367C8.91914 9.87043 8.12967 9.08097 7.66329 8.45954C7.53708 8.29136 7.49619 8.10939 7.53834 7.90337C7.58454 7.67735 7.76936 7.52885 7.91627 7.44405C8.43979 7.14175 8.61979 6.46995 8.31755 5.94643L7.36298 4.29304C7.08957 3.81955 6.52173 3.62095 6.01291 3.82075L5.99312 3.82852C5.20302 4.1387 4.62526 4.37674 4.38634 4.61566C3.95234 5.0497 3.51274 5.85735 3.88332 7.24036C4.60308 9.92661 8.07339 13.3969 10.7596 14.1167C11.1244 14.2144 11.4491 14.2558 11.7375 14.2558C12.5427 14.2558 13.0648 13.9333 13.3844 13.6137C13.6233 13.3748 13.8613 12.7972 14.1714 12.0073L14.1793 11.9872C14.379 11.4783 14.1804 10.9105 13.7069 10.6371ZM13.3938 11.6788L13.3859 11.6989C13.2363 12.08 12.925 12.873 12.7877 13.0171C12.3849 13.4198 11.7761 13.5155 10.9779 13.3017C8.57102 12.6568 5.34312 9.42887 4.69821 7.02197C4.48436 6.22389 4.58012 5.61498 4.98245 5.21269C5.12698 5.07495 5.92017 4.76357 6.30134 4.61394L6.32116 4.60614C6.35277 4.59369 6.38497 4.58778 6.41647 4.58778C6.50362 4.58778 6.58515 4.63356 6.63216 4.71495L7.58672 6.36831C7.65633 6.48893 7.61488 6.64369 7.49429 6.7133C7.07467 6.95556 6.79672 7.31816 6.71161 7.7343C6.62091 8.17791 6.7166 8.60379 6.98836 8.96597C7.50477 9.65408 8.34595 10.4953 9.034 11.0116C9.39611 11.2833 9.82202 11.379 10.2657 11.2883C10.6818 11.2032 11.0444 10.9252 11.2867 10.5056C11.3201 10.4476 11.3746 10.406 11.4402 10.3885C11.5056 10.371 11.5736 10.3797 11.6317 10.4132L13.285 11.3677C13.3959 11.4318 13.4406 11.5597 13.3938 11.6788Z" fill="white" fill-opacity="0.53"/>
</svg>
