<svg width="26" height="28" viewBox="0 0 26 28" fill="none" xmlns="http://www.w3.org/2000/svg">
<path d="M25.1601 3.91872C25.1098 3.55771 24.8501 3.26075 24.4989 3.16315L13.2453 0.0334902C13.0848 -0.0111634 12.9154 -0.0111634 12.7548 0.0334902L1.50111 3.16315C1.14999 3.26075 0.890238 3.55759 0.839972 3.91872C0.7747 4.38807 -0.714363 15.4778 3.10498 20.9946C6.91982 26.5048 12.5475 27.9169 12.7852 27.9743C12.8558 27.9914 12.9278 27.9998 13 27.9998C13.0723 27.9998 13.1442 27.9913 13.2149 27.9743C13.4527 27.9169 19.0804 26.5048 22.8951 20.9946C26.7144 15.4779 25.2253 4.38819 25.1601 3.91872ZM20.2572 10.393L12.5811 18.0691C12.4024 18.2478 12.1682 18.3372 11.9341 18.3372C11.6999 18.3372 11.4657 18.2479 11.2871 18.0691L6.54099 13.3231C6.36933 13.1515 6.27295 12.9187 6.27295 12.6761C6.27295 12.4334 6.36945 12.2006 6.54099 12.0291L7.48335 11.0867C7.8407 10.7295 8.4201 10.7294 8.77733 11.0867L11.9341 14.2435L18.0209 8.15654C18.1924 7.98488 18.4252 7.8885 18.6679 7.8885C18.9105 7.8885 19.1433 7.98488 19.3148 8.15654L20.2572 9.0989C20.6146 9.45625 20.6146 10.0357 20.2572 10.393Z" fill="#7FBF4B"/>
</svg>
