<svg width="62" height="28" viewBox="0 0 62 28" fill="none" xmlns="http://www.w3.org/2000/svg">
<g clip-path="url(#clip0_748_478)">
<path fill-rule="evenodd" clip-rule="evenodd" d="M32.3855 11.5041C29.9045 13.8351 28.2864 18.5277 25.8677 20.526C27.4138 22.6163 29.8685 26.8536 34.0995 23.435C35.4683 21.3706 36.3145 18.7683 37.2158 16.5011C38.1747 14.071 39.2222 12.2355 41.0513 11.9689C42.1995 11.799 43.9566 11.6268 45.3661 13.8563L45.3781 13.8752C43.2758 8.5314 36.5278 7.61128 32.3831 11.5159L32.3855 11.5041Z" fill="#7FBF4B"/>
<path fill-rule="evenodd" clip-rule="evenodd" d="M37.772 17.0343C40.0684 20.0778 44.6182 30.638 53.0275 20.9083L53.1305 20.7856C49.9663 23.2982 48.2308 21.6538 47.0969 19.1129C46.476 17.7232 46.0973 16.4068 45.6394 15.0761C44.496 12.7876 42.6094 12.5352 41.5019 12.698C39.5531 12.9764 38.6949 14.7576 37.772 17.0273V17.0343Z" fill="#7FBF4B"/>
<path fill-rule="evenodd" clip-rule="evenodd" d="M58.3441 7.18205C51.6009 7.32361 50.2226 14.9016 47.5929 18.4406C47.5906 18.4453 47.5894 18.4506 47.5894 18.4559C47.5894 18.4612 47.5906 18.4664 47.5929 18.4712C48.4846 22.0102 51.3301 22.0857 54.4368 19.5093C56.786 17.5606 58.4017 14.937 60.0749 12.3017C62.2874 8.62829 63.5627 7.07353 58.3417 7.18205H58.3441Z" fill="#7FBF4B"/>
<path fill-rule="evenodd" clip-rule="evenodd" d="M25.248 20.9969C23.8697 19.0104 22.5896 16.6134 21.4701 14.339C20.1013 11.5598 19.1904 9.06131 17.7905 6.88369C14.643 1.99054 8.69569 -0.651864 2.8778 0.136137C1.64566 0.303646 0.880968 0.624509 0.454275 1.07985C-0.624444 2.25478 0.430303 4.31915 1.50902 7.07715C3.02642 9.9083 4.49348 12.5649 6.13073 15.0987C10.158 21.3202 15.0002 25.9514 21.3215 27.3953C26.2477 28.5136 29.8769 28.339 33.2641 24.6302L33.1874 24.6916C30.4618 26.7536 27.6979 24.5217 25.248 20.9899V20.9969Z" fill="#7FBF4B"/>
</g>
<defs>
<clipPath id="clip0_748_478">
<rect width="62" height="28" fill="white"/>
</clipPath>
</defs>
</svg>
