<svg width="34" height="58" viewBox="0 0 34 58" fill="none" xmlns="http://www.w3.org/2000/svg">
<path d="M14.5361 11.8197L15.6681 12.8403C16.6756 13.7485 18.013 14.3863 19.3652 14.6551C20.7901 14.9614 22.3588 14.8977 23.5751 14.062C23.9173 13.827 23.4178 14.1475 24.3618 13.5404C24.4291 13.4971 24.4502 13.4075 24.4082 13.3394L23.6837 12.1647C22.8171 10.7578 21.5693 9.70811 19.9829 9.38058C18.8948 9.14614 17.7157 9.31279 16.5766 9.95282C15.8297 10.4019 15.3638 10.9503 15.058 11.2647C14.8846 11.4502 14.7038 11.6289 14.5361 11.8197Z" fill="#7FBF4B"/>
<path d="M14.5363 11.8198L13.4043 10.7992C11.8178 9.3691 11.2138 7.25353 11.9904 4.96091C12.5346 3.47525 13.5278 2.26552 14.7554 1.41721C15.2933 1.04776 14.7003 1.42241 16.2654 0.420393C16.3344 0.376233 16.4264 0.397047 16.4694 0.466943L17.1912 1.63716C18.0637 3.05349 18.2074 4.82295 17.8793 6.43153C17.3237 9.03228 16.0873 10.207 15.0583 11.2647C14.8848 11.4502 14.7039 11.629 14.5363 11.8198Z" fill="#7FBF4B"/>
<path d="M8.76318 22.0261L10.2216 22.4691C11.3649 22.8158 12.635 22.8586 13.7993 22.658C15.7678 22.3182 16.893 21.5431 17.6424 20.6112C17.8432 20.3578 17.7746 20.4104 18.3907 19.4312C18.4332 19.3636 18.4139 19.2741 18.3473 19.2302L17.1942 18.4716C16.1885 17.8092 15.0044 17.365 13.7959 17.3724C12.1972 17.387 10.7793 18.1085 9.81738 19.4694C9.59447 19.8102 9.40096 20.183 9.24443 20.5801C8.94952 21.4474 9.03095 21.2076 8.87696 21.6626C8.83477 21.7824 8.79581 21.9032 8.76318 22.0261Z" fill="#7FBF4B"/>
<path d="M8.76328 22.026L7.30491 21.583C5.49747 21.0351 4.30588 19.6974 3.83602 18.2213C3.27939 16.5286 3.51158 14.6413 4.18296 13.2247C4.54425 12.4543 5.06924 11.6408 5.50788 10.9602C5.55204 10.8915 5.64331 10.8728 5.71152 10.9177L6.86106 11.6739C7.91906 12.3707 8.64417 13.3895 9.12654 14.5558C9.73282 16.0092 9.91972 17.8165 9.586 19.3718C9.51357 19.78 9.4012 20.1828 9.24468 20.58C8.94977 21.4473 9.03119 21.2075 8.8772 21.6624C8.83487 21.7823 8.79591 21.9031 8.76328 22.026Z" fill="#7FBF4B"/>
<path d="M7.87555 33.719L9.38441 33.5038C10.5718 33.3338 11.7319 32.8407 12.6982 32.1615C13.7562 31.4324 14.4796 30.5706 14.8232 29.9347C15.3889 28.9594 15.3515 28.3818 15.4885 27.2688C15.4984 27.1892 15.4432 27.1158 15.3639 27.1044L13.9981 26.9096C12.7907 26.7368 11.5735 26.842 10.4548 27.3634C9.94836 27.6059 9.47329 27.9443 9.05997 28.3577C8.9919 28.4262 8.9237 28.4967 8.86055 28.5694C8.54694 28.9432 8.28873 29.3599 8.08678 29.8019C7.89341 30.2547 7.76656 30.7776 7.7051 31.2618C7.68133 31.5691 7.68119 31.8869 7.70538 32.2045L7.73421 32.5845C7.74504 32.7111 7.76473 32.8366 7.77963 32.9628L7.87555 33.719Z" fill="#7FBF4B"/>
<path d="M7.87565 33.7192L6.36678 33.9343C5.09221 34.1167 3.87024 33.8673 2.7868 33.1812C2.15324 32.7697 1.59731 32.2013 1.16163 31.5714C0.835072 31.0724 0.575883 30.5308 0.378292 29.9755C-0.0680816 28.677 -0.0708943 27.2705 0.12065 25.9206L0.225563 25.0965C0.23597 25.0152 0.310787 24.9582 0.391793 24.9697L1.75327 25.1638C2.98762 25.3405 4.12282 25.9608 5.03019 26.8056C5.4971 27.2304 5.89819 27.6886 6.24035 28.1927C6.29759 28.2765 6.35131 28.3611 6.4063 28.4469C6.70121 28.8904 6.93691 29.3442 7.11468 29.7994C7.32014 30.2894 7.46865 30.7443 7.5626 31.2693C7.63362 31.5786 7.68101 31.8883 7.7052 32.2048L7.73403 32.5848C7.74486 32.7114 7.76455 32.837 7.77946 32.9631L7.87565 33.7192Z" fill="#7FBF4B"/>
<path d="M12.0274 44.6833L13.3007 43.8457C14.0137 43.3761 14.6068 42.7931 15.0879 42.173C16.0798 40.8977 16.9129 38.9784 16.6906 37.394C16.6353 36.7884 16.3196 36.08 16.1785 35.6289C16.1545 35.5518 16.0736 35.5093 15.9963 35.5328L14.6804 35.9325C13.5065 36.2885 12.4528 36.8947 11.6687 37.8382C10.6955 39.0085 10.2905 40.5744 10.7389 42.2363C10.7959 42.4325 10.8543 42.633 10.9403 42.8228C11.2269 43.4633 11.6909 44.1568 12.0274 44.6833Z" fill="#7FBF4B"/>
<path d="M12.0274 44.6833L10.7541 45.5209C9.17797 46.5589 7.25479 46.7406 5.33541 45.7664C3.74217 44.918 2.66392 43.5223 2.00815 41.8325C1.83053 41.3138 1.55151 40.5088 1.42887 40.1108C1.40497 40.0332 1.44898 39.9518 1.52676 39.9281L2.84577 39.5275C4.12188 39.1406 5.73341 39.1807 7.65602 40.0855C8.69545 40.5865 9.79788 41.4407 10.5162 42.3521C10.6472 42.5119 10.7614 42.6836 10.8846 42.8535C11.2281 43.3319 11.0523 43.1578 12.0274 44.6833Z" fill="#7FBF4B"/>
<path d="M20.4376 52.8551L21.2376 51.5579C21.8706 50.5302 22.2311 49.3203 22.3274 48.1503C22.4391 46.8801 22.2682 45.3105 21.5778 44.2714C21.232 43.7035 20.8398 43.4165 20.3598 42.8856C20.3052 42.8251 20.2121 42.819 20.1517 42.8736L19.1294 43.7952C18.0613 44.758 17.3031 45.9577 17.0979 47.3697C16.8528 49.2754 17.7123 51.0148 19.1651 52.0164L19.4756 52.2372C19.8788 52.4972 19.6662 52.3605 20.4376 52.8551Z" fill="#7FBF4B"/>
<path d="M20.4376 52.8551L19.6375 54.1524C18.7428 55.6048 17.3047 56.5229 15.5064 56.6507C13.8028 56.7862 11.8652 56.1428 10.1617 54.5138C9.9785 54.3369 9.22034 53.5431 8.91052 53.2074C8.85511 53.1475 8.85989 53.054 8.9205 52.9994L9.94306 52.0776C11.0112 51.1148 12.4624 50.6253 13.9163 50.5537C15.6281 50.4405 17.5147 50.8781 19.1652 52.0167C19.1654 52.0164 19.6662 52.3605 20.4376 52.8551Z" fill="#7FBF4B"/>
<path d="M21.0879 6.50854L21.8999 4.7966C23.7197 0.960237 28.305 -0.674496 32.1413 1.14531L33.7207 1.89447C33.7939 1.92921 33.8251 2.01668 33.7904 2.08995L33.0412 3.66928C31.2214 7.50564 26.6362 9.14037 22.7998 7.32057L21.0879 6.50854Z" fill="#7FBF4B"/>
<path d="M30.4766 57.6027C30.4238 57.6027 30.3702 57.5988 30.3162 57.5905C23.765 56.591 17.7506 53.2623 13.3814 48.2179C8.96845 43.1229 6.54026 36.6095 6.54419 29.8775C6.54771 23.7575 8.48593 17.9428 12.1493 13.0621C15.6908 8.34399 20.7279 4.79747 26.3328 3.07625C26.8896 2.90537 27.4799 3.218 27.6507 3.77492C27.8217 4.33169 27.509 4.92179 26.9521 5.0928C16.0138 8.45185 8.66032 18.4127 8.65371 29.8788C8.6464 42.5752 18.096 53.5921 30.6344 55.5051C31.2103 55.593 31.6059 56.1311 31.518 56.7069C31.4383 57.2289 30.9888 57.6027 30.4766 57.6027Z" fill="#7FBF4B"/>
</svg>
