<?xml version="1.0" encoding="UTF-8"?>
<!DOCTYPE svg PUBLIC "-//W3C//DTD SVG 1.1//EN" "http://www.w3.org/Graphics/SVG/1.1/DTD/svg11.dtd">
<!-- Creator: CorelDRAW 2020 (64-Bit Не для коммерческого использования) -->
<svg xmlns="http://www.w3.org/2000/svg" xml:space="preserve" width="32.5663mm" height="10.3814mm" version="1.1" style="shape-rendering:geometricPrecision; text-rendering:geometricPrecision; image-rendering:optimizeQuality; fill-rule:evenodd; clip-rule:evenodd"
viewBox="0 0 3390.31 1080.75"
 xmlns:xlink="http://www.w3.org/1999/xlink"
 xmlns:xodm="http://www.corel.com/coreldraw/odm/2003">
 <defs>
  <style type="text/css">
   <![CDATA[
    .fil1 {fill:#1A1A1A;fill-rule:nonzero}
    .fil0 {fill:url(#id0);fill-rule:nonzero}
   ]]>
  </style>
  <linearGradient id="id0" gradientUnits="userSpaceOnUse" x1="-0.01" y1="329.61" x2="3390.31" y2="329.61">
   <stop offset="0" style="stop-opacity:1; stop-color:#FF61B4"/>
   <stop offset="0.490196" style="stop-opacity:1; stop-color:#FF6694"/>
   <stop offset="1" style="stop-opacity:1; stop-color:#FF9173"/>
  </linearGradient>
 </defs>
 <g id="Слой_x0020_1">
  <metadata id="CorelCorpID_0Corel-Layer"/>
  <path class="fil0" d="M1200.3 413.41c31.16,-25.59 73.9,-38.44 128.24,-38.44 21.6,0 43.18,2.77 64.79,8.33 21.61,5.56 40.73,13.88 57.4,25l-0.93 -25.92c-3.72,-97.53 -40.12,-146.28 -109.24,-146.28 -22.83,0 -40.13,5.09 -51.84,15.28 -11.74,10.2 -20.54,20.07 -26.39,29.64 -5.88,9.57 -9.42,15.61 -10.64,18.04 -7.4,2.47 -15.43,3.72 -24.08,3.72 -12.37,0 -22.53,-2.91 -30.55,-8.8 -8.03,-5.86 -12.04,-14.03 -12.04,-24.53 0,-12.33 6.01,-24.67 18.05,-37.03 12.03,-12.34 29.93,-22.53 53.68,-30.55 23.75,-8.03 51.99,-12.04 84.72,-12.04 62.33,0 110.92,16.98 145.82,50.92 34.86,33.95 52.92,80.56 54.16,139.79 0.59,42.6 1.84,76.84 3.72,102.76l0.93 24.08c1.22,24.08 3.38,42.6 6.48,55.55 3.09,12.96 9.1,22.68 18.05,29.16 8.94,6.49 22.35,9.72 40.27,9.72l0 42.6c-12.36,6.78 -31.18,10.19 -56.48,10.19 -46.27,0 -75.32,-27.46 -87.03,-82.4 -13.59,25.33 -33.5,45.99 -59.71,62.04 -26.24,16.05 -56,24.08 -89.35,24.08 -27.76,0 -54.31,-5.56 -79.63,-16.68 -25.33,-11.11 -45.84,-27.13 -61.56,-48.15 -15.73,-20.99 -23.61,-45.36 -23.61,-73.15 0.07,-45.66 15.65,-81.31 46.8,-106.93zm-1200.3 234.67c1.22,-13.55 1.83,-121.57 1.83,-324.03 0,-202.42 -0.61,-310.44 -1.83,-324.02l97.19 -0.01c-1.24,27.17 -1.84,135.16 -1.84,324.03 0,188.87 0.6,296.89 1.84,324.03l-97.19 0zm206.46 -444.37c14.8,-6.78 32.4,-10.2 52.76,-10.2 46.29,0 73.15,30.26 80.56,90.72 17.27,-30.85 39.36,-54.3 66.2,-70.35 26.84,-16.05 54.78,-24.08 83.79,-24.08 51.21,0 91.34,15.91 120.36,47.68 29,31.8 43.81,77.32 44.43,136.55l0 148.11c0,25.33 1.99,43.67 6.01,55.08 4.01,11.42 9.57,18.52 16.68,21.29 7.07,2.76 17.74,4.16 31.95,4.16l0 42.59c-13.59,6.78 -32.73,10.2 -57.39,10.2 -31.48,0 -53.86,-9.58 -67.12,-28.71 -13.29,-19.11 -19.92,-50.29 -19.92,-93.52l-0.01 -146.22c0,-95.04 -34.86,-142.59 -104.63,-142.59 -19.77,0 -37.96,7.25 -54.63,21.76 -16.68,14.5 -29.93,33.65 -39.8,57.39 -9.87,23.78 -14.8,49.52 -14.8,77.32 0,115.42 1.22,197.82 3.71,247.19l-93.51 0c1.22,-51.83 1.84,-157.39 1.84,-316.62 0,-25.3 -2.17,-43.96 -6.48,-56 -4.34,-12.04 -10.35,-19.74 -18.05,-23.15 -7.72,-3.39 -18.36,-5.08 -31.95,-5.08l0 -43.52zm886.01 376.81c0,11.12 -5.27,22.83 -15.73,35.2 -10.49,12.37 -24.85,22.67 -43.04,31 -18.22,8.32 -38.1,12.48 -59.71,12.48 -44.44,0 -78.57,-14.66 -102.31,-43.96 -23.78,-29.31 -35.65,-73.6 -35.65,-132.87 0,-105.55 -0.61,-184.23 -1.83,-236.07l-81.48 -6.49 0 -39.8 25.92 0c27.75,-0.59 45.98,-9.87 54.63,-27.75 8.65,-17.9 12.34,-48.16 11.12,-90.73 0,-3.09 0.59,-5.08 1.84,-6 1.22,-0.93 3.72,-1.41 7.39,-1.41l79.64 0.01c-0.62,66.04 -11.12,108.02 -31.48,125.9l167.59 -0.92 0 45.36 -142.59 -0.93c-1.84,51.83 -2.76,128.08 -2.76,228.67 0,81.48 23.15,122.2 69.44,122.2 14.8,0 29,-3.24 42.59,-9.72 13.55,-6.48 24.67,-15.27 33.32,-26.39 15.37,1.22 23.1,8.63 23.1,22.21zm1905.75 14.32c-40.43,-42.27 -60.64,-100.14 -60.64,-173.58 0,-44.44 9.72,-84.24 29.16,-119.43 19.44,-35.2 46.29,-62.64 80.56,-82.4 34.24,-19.74 72.98,-29.64 116.19,-29.64 70.35,0 125.77,20.99 166.18,62.96 40.43,41.96 60.64,99.69 60.64,173.12 0,44.43 -9.72,84.23 -29.16,119.43 -19.44,35.17 -46.13,62.81 -80.08,82.87 -33.95,20.07 -72.53,30.09 -115.71,30.09 -71.01,0.03 -126.72,-21.11 -167.14,-63.41zm266.62 -30.52c20.7,-31.77 31,-70.83 31,-117.11 0,-43.82 -6.48,-81.63 -19.44,-113.43 -12.96,-31.78 -30.71,-56.01 -53.24,-72.68 -22.53,-16.68 -48,-25 -76.39,-25 -35.17,0 -63.27,15.72 -84.23,47.2 -20.99,31.48 -31.48,71.28 -31.48,119.43 0,43.22 6.48,80.7 19.44,112.47 12.96,31.8 30.86,55.85 53.72,72.21 22.82,16.34 48.74,24.52 77.76,24.52 34.56,0.06 62.18,-15.83 82.87,-47.62zm-530.93 83.76c1.84,-61.11 2.76,-176.5 2.76,-346.25 -0.62,-22.83 -2.47,-39.65 -5.56,-50.45 -3.09,-10.79 -7.39,-20.22 -12.96,-28.23 -0.61,-20.36 26.22,-30.57 80.56,-30.57 19.11,0 28.71,3.72 28.71,11.12l-0.92 16.68c-0.62,25.32 -0.93,86.41 -0.93,183.31 0,127.16 0.59,208.64 1.84,244.43l-93.51 0 0 -0.03zm4.6 -634.64c11.71,-8.94 25.6,-13.44 41.67,-13.44 15.43,0 28.87,4.49 40.28,13.44 11.42,8.94 17.13,21.46 17.13,37.48 0,15.43 -5.7,27.62 -17.13,36.56 -11.41,8.94 -25.15,13.44 -41.19,13.44 -16.05,0 -29.78,-4.46 -41.2,-13.44 -11.41,-8.94 -17.11,-21.13 -17.11,-36.56 0,-16.01 5.85,-28.5 17.56,-37.48zm-480.46 289.79c19.11,-35.49 45.36,-63.25 78.68,-83.32 33.32,-20.07 70.98,-30.09 112.95,-30.09 31.48,0 60.19,4.93 86.12,14.8 25.92,9.87 47.2,22.83 63.88,38.88 16.67,16.05 27.46,33.02 32.4,50.92 0.59,2.47 0.93,5.56 0.93,9.28 0,9.87 -3.57,18.37 -10.64,25.47 -7.11,7.1 -15.91,11.26 -26.4,12.48 -4.93,0.62 -11.41,0.93 -19.44,0.93 -7.4,0 -13.59,-0.29 -18.52,-0.93 -10.49,-32.06 -26.24,-57.87 -47.2,-77.31 -20.99,-19.44 -42.89,-29.16 -65.72,-29.16 -35.79,0 -64.79,16.05 -87.03,48.15 -22.21,32.11 -33.32,73.46 -33.32,124.07 0,36.42 6.78,69.15 20.36,98.15 13.59,29.01 32.4,51.7 56.48,68.04 24.08,16.35 50.92,24.52 80.56,24.52 23.45,0 46.75,-6.15 69.91,-18.51 23.15,-12.34 41.2,-28.39 54.16,-48.16 7.4,0.62 13.74,3.38 18.97,8.32 5.23,4.93 7.55,11.12 6.95,18.52 -1.84,16.68 -10.82,32.73 -26.84,48.16 -16.05,15.43 -37.19,28.09 -63.43,37.96 -26.26,9.87 -55.08,14.8 -86.56,14.8 -41.96,0 -80.08,-10.35 -114.35,-31 -34.24,-20.69 -61.41,-49.08 -81.47,-85.19 -20.06,-36.11 -30.09,-76.39 -30.09,-120.83 -0.03,-43.82 9.54,-83.44 28.68,-118.96zm-600.85 -99.51c14.8,-6.78 32.41,-10.2 52.76,-10.2 46.29,0 73.15,30.26 80.56,90.72 17.27,-30.85 39.36,-54.3 66.2,-70.35 26.84,-16.05 54.78,-24.08 83.79,-24.08 51.21,0 91.34,15.91 120.36,47.68 29.01,31.8 43.82,77.32 44.43,136.55l0 148.11c0,25.33 2,43.67 6.01,55.08 4.02,11.42 9.58,18.52 16.68,21.29 7.08,2.76 17.74,4.16 31.95,4.16l0 42.59c-13.59,6.78 -32.72,10.2 -57.39,10.2 -31.48,0 -53.86,-9.58 -67.12,-28.71 -13.28,-19.11 -19.92,-50.29 -19.92,-93.52l0 -146.22c0,-95.04 -34.88,-142.59 -104.64,-142.59 -19.77,0 -37.96,7.25 -54.63,21.76 -16.68,14.5 -29.93,33.65 -39.8,57.39 -9.87,23.78 -14.8,49.52 -14.8,77.32 0,115.42 1.22,197.82 3.72,247.19l-93.52 0c1.22,-51.83 1.84,-157.39 1.84,-316.62 0,-25.3 -2.17,-43.96 -6.48,-56 -4.34,-12.04 -10.35,-19.74 -18.05,-23.15 -7.72,-3.39 -18.36,-5.08 -31.95,-5.08l0 -43.52zm-381.9 374.5c20.07,17.59 44.59,26.39 73.6,26.39 17.89,0 35.19,-4.93 51.83,-14.8 16.68,-9.87 29.93,-23.15 39.8,-39.8 9.87,-16.68 14.5,-34.86 13.89,-54.63l-1.84 -44.44c-29.64,-23.45 -64.81,-35.17 -105.55,-35.17 -33.32,0 -58.65,8.03 -75.92,24.08 -17.29,16.05 -25.91,37.96 -25.91,65.72 0.03,30.83 10.05,55.05 30.11,72.65z"/>
  <path class="fil1" d="M539.51 1077.33c-1.53,-3.05 -8.15,-13.76 -19.86,-32.14 -11.71,-18.38 -21.19,-33.09 -28.42,-44.15 -5.72,0.39 -10.19,0.57 -13.43,0.57l-42.86 0c0,45.71 0.09,70.96 0.29,75.72l-21.44 0c0.39,-11.81 0.57,-45.99 0.57,-102.56 0,-57.72 -0.19,-90.2 -0.57,-97.43l61.43 0c26.09,0 46.29,5.67 60.57,17 14.28,11.34 21.42,26.71 21.42,46.14 0,14.1 -3.95,26.01 -11.86,35.72 -7.9,9.71 -19.19,16.76 -33.85,21.14 4.57,7.42 13.76,21.76 27.57,43 13.81,21.24 22.05,33.57 24.71,37l-24.28 0zm-63.43 -89.71c18.67,0 33.19,-3.9 43.57,-11.72 10.38,-7.81 15.57,-19.13 15.57,-33.99 0,-16.2 -5.29,-28.52 -15.86,-37 -10.58,-8.48 -25.77,-12.72 -45.57,-12.72l-25.43 0c-4.96,0 -8.38,0.39 -10.29,1.15 -1.91,0.76 -2.96,2.57 -3.14,5.42l0 54.57 0 32c5.53,1.52 13.43,2.29 23.72,2.29l17.43 0z"/>
  <path id="1" class="fil1" d="M722.36 980.19c28.95,0 46.95,0.09 54,0.28 0,4.96 -0.86,8.25 -2.57,9.86 -1.72,1.62 -4.57,2.44 -8.58,2.44 0,8 -0.09,14.28 -0.28,18.85l-0.28 19.14 0 1.43c-1.91,9.71 -6.71,18.24 -14.43,25.57 -7.71,7.33 -17.57,12.95 -29.58,16.85 -11.99,3.9 -25.14,5.86 -39.42,5.86 -18.67,0 -35.57,-4.57 -50.71,-13.71 -15.15,-9.15 -27.05,-21.67 -35.72,-37.57 -8.66,-15.91 -13,-33.57 -13,-53 0,-18.85 4.25,-36.09 12.72,-51.72 8.47,-15.62 20.04,-27.94 34.71,-37 14.67,-9.05 30.95,-13.56 48.86,-13.56 12.58,0 24.66,2 36.28,6 11.62,4 21.67,9.47 30.15,16.43 8.47,6.95 14.23,14.62 17.28,23 0.39,2.86 -0.04,5.72 -1.28,8.58 -1.24,2.85 -3.1,4.66 -5.58,5.42 -3.04,1.15 -6.76,1.53 -11.14,1.15 -2.67,-8.57 -7.53,-16.38 -14.56,-23.42 -7.05,-7.05 -15.39,-12.63 -25.01,-16.72 -9.62,-4.09 -19.48,-6.14 -29.57,-6.14 -13.15,0 -25.1,3.57 -35.85,10.71 -10.76,7.14 -19.24,17.05 -25.43,29.71 -6.19,12.67 -9.29,27 -9.29,43.01 0,17.71 3.62,33.71 10.86,47.99 7.24,14.29 17.24,25.47 30,33.57 12.75,8.1 26.94,12.14 42.57,12.14 11.42,0 22.24,-1.76 32.43,-5.28 10.18,-3.53 18.52,-8.53 25,-15 0.95,-10.67 1.43,-28.1 1.43,-52.28 -22.28,-0.96 -37.52,-1.91 -45.71,-2.86 -0.95,-2.67 -1.43,-5.9 -1.43,-9.71l23.14 0z"/>
  <path id="2" class="fil1" d="M1063.78 1069.62c0.76,0.76 1.15,1.72 1.15,2.85 0,1.72 -1.05,3.34 -3.14,4.86 -2.1,1.52 -4.57,2.29 -7.43,2.29 -3.43,0 -6.86,-1.15 -10.29,-3.44 -12.57,-7.81 -23.52,-15.23 -32.86,-22.28 -16.38,17.52 -36.19,26.28 -59.42,26.28 -15.05,0 -28.1,-2.33 -39.14,-7 -11.05,-4.66 -19.57,-11.28 -25.57,-19.85 -6.01,-8.58 -9.01,-18.57 -9.01,-30 0,-12 4.1,-22.18 12.28,-30.57 8.19,-8.38 19.62,-16.76 34.29,-25.14 -6.67,-9.53 -11.76,-18.38 -15.29,-26.58 -3.52,-8.19 -5.28,-15.14 -5.28,-20.85 0,-14.28 4.57,-25.43 13.71,-33.43 9.14,-8.01 21.81,-12 38,-12 15.24,0 27.1,3.44 35.57,10.29 8.47,6.86 12.71,17.05 12.71,30.58 0,8.18 -2.48,15.56 -7.43,22.14 -4.94,6.57 -10.99,12.23 -18.14,17 -7.14,4.76 -16.81,10.47 -29,17.14 13.91,17.72 33.43,36.85 58.57,57.42 9.71,-16.95 15.62,-36.09 17.72,-57.42l3.72 -0.28c4.19,0 9.33,0.57 15.42,1.71 -3.04,26.29 -10.66,48.58 -22.85,66.86 10.29,8.01 24.19,17.81 41.71,29.43zm-139.43 -150.29c0,11.06 5.24,24.38 15.72,40.01 14.66,-8.01 25.76,-15.19 33.28,-21.57 7.52,-6.38 11.28,-13.76 11.28,-22.14 0,-9.71 -2.57,-16.96 -7.71,-21.72 -5.14,-4.76 -12.38,-7.14 -21.72,-7.14 -9.53,0 -17.04,2.85 -22.57,8.57 -5.53,5.72 -8.29,13.71 -8.29,24zm27.43 148.29c8.57,0 16.76,-2.09 24.57,-6.29 7.81,-4.19 14.95,-10.1 21.42,-17.71 -24.95,-20 -46.19,-40.95 -63.71,-62.86 -11.23,6.48 -19.9,13.1 -25.99,19.85 -6.1,6.77 -9.14,14.52 -9.14,23.29 0,13.14 4.81,23.72 14.43,31.71 9.61,8.01 22.42,12 38.43,12z"/>
  <path id="3" class="fil1" d="M1232.61 877.33c18.67,0 35.81,4.14 51.43,12.43 15.63,8.29 28,20 37.14,35.15 9.14,15.14 13.71,32.52 13.71,52.14 0,20.2 -4.28,37.85 -12.86,53 -8.57,15.15 -20.47,26.81 -35.71,35 -15.24,8.19 -32.57,12.28 -52,12.28l-70 0c0.57,-6.09 0.86,-35.91 0.86,-89.43 0,-65.71 -0.29,-102.56 -0.86,-110.57l68.28 0zm4.01 186.29c14.1,0 26.9,-3.33 38.43,-10 11.52,-6.66 20.66,-16.33 27.42,-28.99 6.77,-12.67 10.15,-27.58 10.15,-44.71 0,-17.91 -3.9,-33.57 -11.71,-47 -7.82,-13.43 -18.1,-23.76 -30.86,-31 -12.76,-7.24 -26.38,-10.85 -40.86,-10.85l-28.86 0c-5.52,0 -9.23,0.23 -11.14,0.71 -1.91,0.48 -3.05,1.48 -3.43,3l-0.29 82 0.29 82.28c4.37,1.52 8.28,2.67 11.71,3.43 3.43,0.76 7.81,1.15 13.14,1.15l26.01 0z"/>
  <path id="4" class="fil1" d="M1485.46 977.34c4.2,9.52 11.67,26.47 22.43,50.86 10.76,24.38 18.14,40.76 22.15,49.14l-25.72 0 -23.14 -55.72c-10.67,-0.19 -26.77,-0.28 -48.28,-0.28 -21.53,0 -37.62,0.09 -48.28,0.28 -6.48,15.43 -12.67,30.67 -18.57,45.71 -0.76,1.91 -1.48,3.67 -2.14,5.29 -0.67,1.62 -1.28,3.2 -1.85,4.72l-19.44 0c30.67,-71.24 57.43,-134.57 80.29,-189.99 -1.91,-0.2 -3.52,-1.29 -4.85,-3.29 -1.33,-2 -1.81,-4.24 -1.44,-6.71l20.57 0c2.68,0 4.38,0.86 5.14,2.57l43.14 97.43zm-9.42 29.71l-17.72 -41.43c-12.95,-30.28 -21.61,-51.04 -25.99,-62.28 -5.9,15.62 -16.39,41.61 -31.43,78 -0.76,1.71 -4.38,10.29 -10.86,25.71l86 0z"/>
  <path id="5" class="fil1" d="M1715.47 877.33c-0.39,16.76 -0.57,60.66 -0.57,131.71 0,40.57 0.09,63.33 0.28,68.28l-10.29 0c-1.91,0 -3.14,-0.15 -3.71,-0.43 -0.57,-0.29 -1.15,-0.81 -1.72,-1.57 -0.57,-0.76 -1.05,-1.33 -1.43,-1.72 -24.58,-33.14 -66.19,-87.8 -124.85,-164 -0.2,12 -0.29,42.29 -0.29,90.86 0,45.33 0.09,70.95 0.29,76.85l-16.29 0c0.39,-13.71 0.57,-47.62 0.57,-101.71 0,-54.85 -0.19,-87.61 -0.57,-98.29l10.58 0c1.71,0 3.04,0.19 4,0.57 0.95,0.39 1.91,1.15 2.85,2.29 28.95,39.61 70.67,94.28 125.14,163.99 0,-100.18 -0.29,-155.8 -0.85,-166.85l16.85 0z"/>
  <path id="6" class="fil1" d="M1754.9 976.19c0,-18.85 4.25,-36.09 12.72,-51.72 8.47,-15.62 20.04,-27.9 34.71,-36.85 14.67,-8.95 30.95,-13.43 48.86,-13.43 12.58,0 24.77,2.05 36.57,6.14 11.81,4.1 22,9.67 30.57,16.72 8.58,7.05 14.39,14.86 17.43,23.42 0.39,3.44 -0.04,6.38 -1.28,8.86 -1.24,2.48 -3.19,4.09 -5.86,4.86 -3.61,1.33 -7.42,1.8 -11.42,1.43 -2.86,-8.95 -7.82,-17.24 -14.86,-24.86 -7.05,-7.62 -15.43,-13.67 -25.15,-18.15 -9.71,-4.48 -19.52,-6.7 -29.42,-6.7 -13.15,0 -25.1,3.66 -35.85,10.99 -10.76,7.34 -19.24,17.52 -25.43,30.58 -6.19,13.04 -9.29,27.75 -9.29,44.14 0,17.71 3.62,33.8 10.86,48.28 7.24,14.47 17.24,25.81 30,34 12.75,8.18 26.94,12.28 42.57,12.28 16.38,0 30.9,-4.53 43.57,-13.58 12.67,-9.05 21.28,-20.43 25.86,-34.14 2.67,0.19 4.76,1 6.28,2.43 1.53,1.43 2.2,3.28 2,5.57 -2.47,10.1 -7.57,19.24 -15.28,27.43 -7.71,8.18 -17.43,14.71 -29.14,19.57 -11.71,4.85 -24.62,7.28 -38.72,7.28 -18.67,0 -35.67,-4.61 -50.99,-13.86 -15.33,-9.23 -27.39,-21.81 -36.15,-37.71 -8.77,-15.91 -13.15,-33.57 -13.15,-53z"/>
  <path id="7" class="fil1" d="M2018.9 1062.75c16.57,0 33.85,-0.14 51.85,-0.43 18,-0.28 29.28,-0.61 33.85,-1l0 16 -128 0c0.39,-4.2 0.57,-37.72 0.57,-100.57 0,-62.47 -0.19,-95.62 -0.57,-99.43l123.43 0 0 15.72c-9.53,-0.39 -22.85,-0.67 -40,-0.86 -17.15,-0.19 -35.05,-0.28 -53.72,-0.28 -2.67,0 -4.71,0.33 -6.14,1 -1.43,0.67 -2.24,1.85 -2.43,3.57l0 69.71c17.91,0 44.95,-0.37 81.14,-1.13l0 16.56c-18.09,-0.57 -45.14,-0.85 -81.14,-0.85l0 80.29c4.96,1.13 12,1.71 21.14,1.71z"/>
  <path id="8" class="fil1" d="M2431.45 877.05c-3.44,8.57 -19.14,60.76 -47.14,156.56 -1.91,6.66 -3.96,13.67 -6.14,21 -2.2,7.34 -4.43,14.91 -6.71,22.72l-17.72 0c-10.29,-30.47 -26.95,-78.09 -50,-142.85l-3.71 -10.86c-12.39,38.29 -28.48,89.52 -48.28,153.71l-17.72 0c-7.05,-24.95 -18.85,-62.29 -35.43,-112 -16.57,-49.71 -26.77,-79.14 -30.58,-88.28l24.29 0c1.53,7.05 11.91,41.71 31.15,103.99l21.71 70.85c16,-49.9 31.62,-100.09 46.86,-150.57l-8.57 -24.28 22.57 0c1.52,6.29 8.66,28.99 21.42,68.14 12.76,39.14 24.67,75.18 35.72,108.14 27.99,-98.47 44.38,-157.24 49.14,-176.28l19.14 0z"/>
  <path id="9" class="fil1" d="M2500.59 1062.75c16.57,0 33.85,-0.14 51.85,-0.43 18,-0.28 29.28,-0.61 33.85,-1l0 16 -128 0c0.39,-4.2 0.57,-37.72 0.57,-100.57 0,-62.47 -0.19,-95.62 -0.57,-99.43l123.43 0 0 15.72c-9.53,-0.39 -22.85,-0.67 -40,-0.86 -17.15,-0.19 -35.05,-0.28 -53.72,-0.28 -2.67,0 -4.71,0.33 -6.14,1 -1.43,0.67 -2.24,1.85 -2.43,3.57l0 69.71c17.91,0 44.95,-0.37 81.14,-1.13l0 16.56c-18.09,-0.57 -45.14,-0.85 -81.14,-0.85l0 80.29c4.96,1.13 12,1.71 21.14,1.71z"/>
  <path id="10" class="fil1" d="M2733.72 977.34c4.2,9.52 11.67,26.47 22.43,50.86 10.76,24.38 18.14,40.76 22.14,49.14l-25.71 0 -23.14 -55.72c-10.67,-0.19 -26.77,-0.28 -48.28,-0.28 -21.53,0 -37.62,0.09 -48.28,0.28 -6.48,15.43 -12.67,30.67 -18.57,45.71 -0.76,1.91 -1.48,3.67 -2.14,5.29 -0.67,1.62 -1.28,3.2 -1.85,4.72l-19.44 0c30.67,-71.24 57.43,-134.57 80.29,-189.99 -1.91,-0.2 -3.52,-1.29 -4.85,-3.29 -1.33,-2 -1.81,-4.24 -1.44,-6.71l20.57 0c2.68,0 4.38,0.86 5.14,2.57l43.14 97.43zm-9.42 29.71l-17.72 -41.43c-12.95,-30.28 -21.61,-51.04 -25.99,-62.28 -5.9,15.62 -16.39,41.61 -31.43,78 -0.76,1.71 -4.38,10.29 -10.86,25.71l86 0z"/>
  <path id="11" class="fil1" d="M2930.86 1077.33c-1.53,-3.05 -8.15,-13.76 -19.86,-32.14 -11.71,-18.38 -21.19,-33.09 -28.42,-44.15 -5.72,0.39 -10.19,0.57 -13.43,0.57l-42.86 0c0,45.71 0.09,70.96 0.29,75.72l-21.44 0c0.39,-11.81 0.57,-45.99 0.57,-102.56 0,-57.72 -0.19,-90.2 -0.57,-97.43l61.43 0c26.09,0 46.29,5.67 60.57,17 14.28,11.34 21.42,26.71 21.42,46.14 0,14.1 -3.95,26.01 -11.86,35.72 -7.9,9.71 -19.19,16.76 -33.85,21.14 4.57,7.42 13.76,21.76 27.57,43 13.81,21.24 22.05,33.57 24.71,37l-24.28 0zm-63.43 -89.71c18.67,0 33.19,-3.9 43.57,-11.72 10.38,-7.81 15.57,-19.13 15.57,-33.99 0,-16.2 -5.29,-28.52 -15.86,-37 -10.58,-8.48 -25.77,-12.72 -45.57,-12.72l-25.43 0c-4.96,0 -8.38,0.39 -10.29,1.15 -1.91,0.76 -2.96,2.57 -3.14,5.42l0 54.57 0 32c5.53,1.52 13.43,2.29 23.72,2.29l17.43 0z"/>
 </g>
</svg>
